<svg xmlns="http://www.w3.org/2000/svg" version="1.1" xmlns:xlink="http://www.w3.org/1999/xlink" xmlns:svgjs="http://svgjs.dev/svgjs" width="1500" height="1500" viewBox="0 0 1500 1500"><rect width="1500" height="1500" fill="#ffffff"></rect><g transform="matrix(0.6666666666666666,0,0,0.6666666666666666,249.39393939393938,582.0246018119171)"><svg viewBox="0 0 396 133" data-background-color="#ffffff" preserveAspectRatio="xMidYMid meet" height="503" width="1500" xmlns="http://www.w3.org/2000/svg" xmlns:xlink="http://www.w3.org/1999/xlink"><g id="tight-bounds" transform="matrix(1,0,0,1,0.2400000000000091,0.12244918195338528)"><svg viewBox="0 0 395.52 132.7551016360932" height="132.7551016360932" width="395.52"><g><svg viewBox="0 0 395.52 132.7551016360932" height="132.7551016360932" width="395.52"><g><svg viewBox="0 0 395.52 132.7551016360932" height="132.7551016360932" width="395.52"><g id="textblocktransform"><svg viewBox="0 0 395.52 132.7551016360932" height="132.7551016360932" width="395.52" id="textblock"><g><svg viewBox="0 0 395.52 132.7551016360932" height="132.7551016360932" width="395.52"><g transform="matrix(1,0,0,1,0,0)"><svg width="395.52" viewBox="0.5 -33.25 100.84 33.85" height="132.7551016360932" data-palette-color="#000000"><path d="M13.1 0.6L13.1 0.6Q9.35 0.6 7.18-1.88 5-4.35 5-8.95L5-8.95 5-21.15 0.5-21.15 0.5-25.05 5.1-25.05 6.05-33.25 9.5-33.25 9.5-25.05 16.7-25.05 16.7-21.15 9.5-21.15 9.5-8.6Q9.5-5.7 10.73-4.55 11.95-3.4 13.65-3.4L13.65-3.4Q14.9-3.4 16.03-3.8 17.15-4.2 18.1-4.75L18.1-4.75 19.35-1.15Q18.35-0.55 16.65 0.03 14.95 0.6 13.1 0.6ZM28.35 0L23.85 0 23.85-26 28.2-26 28.2-20.35Q28.85-22 29.95-23.43 31.05-24.85 32.7-25.73 34.35-26.6 36.55-26.6L36.55-26.6Q37.3-26.6 38.05-26.53 38.8-26.45 39.3-26.3L39.3-26.3 37.95-21.65Q37-22.05 35.7-22.05L35.7-22.05Q33.85-22.05 32.17-21 30.5-19.95 29.42-17.75 28.35-15.55 28.35-12.15L28.35-12.15 28.35 0ZM52.7 0.6L52.7 0.6Q47.09 0.6 43.82-2.98 40.55-6.55 40.55-13L40.55-13Q40.55-16.9 42.02-19.98 43.5-23.05 46.15-24.83 48.8-26.6 52.3-26.6L52.3-26.6Q56.05-26.6 58.52-24.98 61-23.35 62.25-20.6 63.5-17.85 63.5-14.55L63.5-14.55Q63.5-12.8 63.34-11.15L63.34-11.15 45.15-11.15Q45.59-7.5 47.7-5.45 49.8-3.4 53.25-3.4L53.25-3.4Q55.5-3.4 57.3-3.88 59.09-4.35 60.75-5.1L60.75-5.1 61.8-1.25Q60-0.45 57.75 0.08 55.5 0.6 52.7 0.6ZM45.09-14.8L45.09-14.8 59.34-14.8Q59.34-18.6 57.45-20.65 55.55-22.7 52.2-22.7L52.2-22.7Q49.3-22.7 47.4-20.68 45.5-18.65 45.09-14.8ZM89.99-2.45L86.59 0.45 77.84-10.4 69.19 0.35 65.99-2.45 75.24-13.2 66.34-23.5 69.84-26.55 77.89-16.15 85.79-26.35 89.14-23.5 80.49-13.4 89.99-2.45ZM97.99 0.6L97.99 0.6Q96.64 0.6 95.64-0.4 94.64-1.4 94.64-2.75L94.64-2.75Q94.64-4.3 95.54-5.2 96.44-6.1 97.99-6.1L97.99-6.1Q99.29-6.1 100.32-5.1 101.34-4.1 101.34-2.75L101.34-2.75Q101.34-1.25 100.39-0.33 99.44 0.6 97.99 0.6Z" opacity="1" transform="matrix(1,0,0,1,0,0)" fill="#000000" class="wordmark-text-0" data-fill-palette-color="primary" id="text-0"></path></svg></g></svg></g></svg></g></svg></g><g></g></svg></g><defs></defs></svg><rect width="395.52" height="132.7551016360932" fill="none" stroke="none" visibility="hidden"></rect></g></svg></g></svg>